# xmcd
#
# Track frame offsets: 
#        182
#        22562
#        40865
#        72890
#        97738
#        117677
#        138720
#        169766
#        188118
#        213443
#        236122
#        253195
#        279701
#        301165
#
# Disc length: 4105 seconds
#
# Revision: 0
# Processed by: cddbd v1.5.2PL0 Copyright (c) Steve Scherf et al.
# Submitted via: ExactAudioCopy v0.99pb5
#
DISCID=c510070e
DTITLE=Gary Primich and Friends - Gary, Indiana
DYEAR=2010
DGENRE=Blues
TTITLE0=The Hitman
TTITLE1=Hillybilly Blues
TTITLE2=Sadie
TTITLE3=Down The Road I Go
TTITLE4=Real Gone Lover
TTITLE5=Think It Over
TTITLE6=Goodbye Little Girl
TTITLE7=Company Man
TTITLE8=Hustler
TTITLE9=The Girl That Radiates That Charm
TTITLE10=Number Nine Train
TTITLE11=Been Around The World - My Back Scratcher
TTITLE12=Gary Indiana
TTITLE13=Monologue
EXTD=
EXTT0=
EXTT1=
EXTT2=
EXTT3=
EXTT4=
EXTT5=
EXTT6=
EXTT7=
EXTT8=
EXTT9=
EXTT10=
EXTT11=
EXTT12=
EXTT13=
PLAYORDER=
